<mxfile host="app.diagrams.net" agent="Mozilla/5.0 (X11; Ubuntu; Linux x86_64; rv:143.0) Gecko/20100101 Firefox/143.0" version="28.2.5">
  <diagram name="Page-1" id="SrQeksRvBIzcCES60Ik3">
    <mxGraphModel dx="1678" dy="972" grid="1" gridSize="10" guides="1" tooltips="1" connect="1" arrows="1" fold="1" page="1" pageScale="1" pageWidth="827" pageHeight="1169" math="0" shadow="0">
      <root>
        <mxCell id="0" />
        <mxCell id="1" parent="0" />
        <mxCell id="4r2X5L9g-t0mAyMvK6OW-1" value="" style="endArrow=none;html=1;rounded=0;" edge="1" parent="1">
          <mxGeometry width="50" height="50" relative="1" as="geometry">
            <mxPoint x="114" y="80" as="sourcePoint" />
            <mxPoint x="714" y="80" as="targetPoint" />
          </mxGeometry>
        </mxCell>
        <mxCell id="4r2X5L9g-t0mAyMvK6OW-2" value="" style="endArrow=none;html=1;rounded=0;" edge="1" parent="1">
          <mxGeometry width="50" height="50" relative="1" as="geometry">
            <mxPoint x="434" y="40" as="sourcePoint" />
            <mxPoint x="434" y="800" as="targetPoint" />
          </mxGeometry>
        </mxCell>
        <mxCell id="4r2X5L9g-t0mAyMvK6OW-3" value="Client" style="text;html=1;align=center;verticalAlign=middle;whiteSpace=wrap;rounded=0;fontStyle=0;fontSize=19;" vertex="1" parent="1">
          <mxGeometry x="244" y="40" width="60" height="40" as="geometry" />
        </mxCell>
        <mxCell id="4r2X5L9g-t0mAyMvK6OW-4" value="Server" style="text;html=1;align=center;verticalAlign=middle;whiteSpace=wrap;rounded=0;fontStyle=0;fontSize=19;" vertex="1" parent="1">
          <mxGeometry x="524" y="40" width="60" height="40" as="geometry" />
        </mxCell>
        <mxCell id="4r2X5L9g-t0mAyMvK6OW-7" style="edgeStyle=orthogonalEdgeStyle;rounded=0;orthogonalLoop=1;jettySize=auto;html=1;" edge="1" parent="1" source="4r2X5L9g-t0mAyMvK6OW-5" target="4r2X5L9g-t0mAyMvK6OW-6">
          <mxGeometry relative="1" as="geometry" />
        </mxCell>
        <mxCell id="4r2X5L9g-t0mAyMvK6OW-5" value="" style="ellipse;fillColor=strokeColor;html=1;" vertex="1" parent="1">
          <mxGeometry x="149" y="130" width="30" height="30" as="geometry" />
        </mxCell>
        <mxCell id="4r2X5L9g-t0mAyMvK6OW-6" value="&lt;div&gt;Request to&lt;/div&gt;&lt;div&gt;/auth/login/&lt;/div&gt;" style="html=1;align=center;verticalAlign=middle;rounded=1;absoluteArcSize=1;arcSize=10;dashed=0;whiteSpace=wrap;" vertex="1" parent="1">
          <mxGeometry x="224" y="120" width="130" height="50" as="geometry" />
        </mxCell>
        <mxCell id="4r2X5L9g-t0mAyMvK6OW-11" style="edgeStyle=orthogonalEdgeStyle;rounded=0;orthogonalLoop=1;jettySize=auto;html=1;" edge="1" parent="1" source="4r2X5L9g-t0mAyMvK6OW-9" target="4r2X5L9g-t0mAyMvK6OW-13">
          <mxGeometry relative="1" as="geometry">
            <mxPoint x="479" y="145" as="targetPoint" />
          </mxGeometry>
        </mxCell>
        <mxCell id="4r2X5L9g-t0mAyMvK6OW-9" value="" style="rounded=0;whiteSpace=wrap;html=1;" vertex="1" parent="1">
          <mxGeometry x="354" y="135" width="20" height="20" as="geometry" />
        </mxCell>
        <mxCell id="4r2X5L9g-t0mAyMvK6OW-12" value="Credentials" style="text;html=1;align=center;verticalAlign=middle;whiteSpace=wrap;rounded=0;" vertex="1" parent="1">
          <mxGeometry x="354" y="105" width="70" height="30" as="geometry" />
        </mxCell>
        <mxCell id="4r2X5L9g-t0mAyMvK6OW-15" value="[No]" style="rounded=0;orthogonalLoop=1;jettySize=auto;html=1;" edge="1" parent="1" source="4r2X5L9g-t0mAyMvK6OW-13" target="4r2X5L9g-t0mAyMvK6OW-14">
          <mxGeometry relative="1" as="geometry" />
        </mxCell>
        <mxCell id="4r2X5L9g-t0mAyMvK6OW-36" value="[Yes]" style="edgeStyle=orthogonalEdgeStyle;rounded=0;orthogonalLoop=1;jettySize=auto;html=1;" edge="1" parent="1" source="4r2X5L9g-t0mAyMvK6OW-13" target="4r2X5L9g-t0mAyMvK6OW-35">
          <mxGeometry relative="1" as="geometry" />
        </mxCell>
        <mxCell id="4r2X5L9g-t0mAyMvK6OW-13" value="&lt;div&gt;Does user for&amp;nbsp;&lt;/div&gt;&lt;div&gt;email/username exist?&lt;/div&gt;" style="rhombus;whiteSpace=wrap;html=1;" vertex="1" parent="1">
          <mxGeometry x="584" y="87.5" width="120" height="115" as="geometry" />
        </mxCell>
        <mxCell id="4r2X5L9g-t0mAyMvK6OW-17" style="edgeStyle=orthogonalEdgeStyle;rounded=0;orthogonalLoop=1;jettySize=auto;html=1;" edge="1" parent="1" source="4r2X5L9g-t0mAyMvK6OW-14" target="4r2X5L9g-t0mAyMvK6OW-16">
          <mxGeometry relative="1" as="geometry" />
        </mxCell>
        <mxCell id="4r2X5L9g-t0mAyMvK6OW-14" value="Send status 401" style="html=1;align=center;verticalAlign=middle;rounded=1;absoluteArcSize=1;arcSize=10;dashed=0;whiteSpace=wrap;" vertex="1" parent="1">
          <mxGeometry x="454" y="210" width="115" height="50" as="geometry" />
        </mxCell>
        <mxCell id="4r2X5L9g-t0mAyMvK6OW-16" value="" style="shape=sumEllipse;perimeter=ellipsePerimeter;html=1;backgroundOutline=1;" vertex="1" parent="1">
          <mxGeometry x="354" y="220" width="30" height="30" as="geometry" />
        </mxCell>
        <mxCell id="4r2X5L9g-t0mAyMvK6OW-18" value="Create JWT" style="html=1;align=center;verticalAlign=middle;rounded=1;absoluteArcSize=1;arcSize=10;dashed=0;whiteSpace=wrap;" vertex="1" parent="1">
          <mxGeometry x="586.5" y="440" width="115" height="50" as="geometry" />
        </mxCell>
        <mxCell id="4r2X5L9g-t0mAyMvK6OW-24" style="edgeStyle=orthogonalEdgeStyle;rounded=0;orthogonalLoop=1;jettySize=auto;html=1;" edge="1" parent="1" source="4r2X5L9g-t0mAyMvK6OW-20" target="4r2X5L9g-t0mAyMvK6OW-23">
          <mxGeometry relative="1" as="geometry" />
        </mxCell>
        <mxCell id="4r2X5L9g-t0mAyMvK6OW-20" value="" style="rounded=0;whiteSpace=wrap;html=1;" vertex="1" parent="1">
          <mxGeometry x="636.5" y="490" width="20" height="20" as="geometry" />
        </mxCell>
        <mxCell id="4r2X5L9g-t0mAyMvK6OW-21" value="JWT" style="text;html=1;align=center;verticalAlign=middle;whiteSpace=wrap;rounded=0;" vertex="1" parent="1">
          <mxGeometry x="656.5" y="490" width="40" height="30" as="geometry" />
        </mxCell>
        <mxCell id="4r2X5L9g-t0mAyMvK6OW-22" value="Send JWT" style="html=1;align=center;verticalAlign=middle;rounded=1;absoluteArcSize=1;arcSize=10;dashed=0;whiteSpace=wrap;" vertex="1" parent="1">
          <mxGeometry x="589" y="553" width="115" height="50" as="geometry" />
        </mxCell>
        <mxCell id="4r2X5L9g-t0mAyMvK6OW-23" value="" style="rounded=0;whiteSpace=wrap;html=1;" vertex="1" parent="1">
          <mxGeometry x="636.5" y="533" width="20" height="20" as="geometry" />
        </mxCell>
        <mxCell id="4r2X5L9g-t0mAyMvK6OW-29" style="edgeStyle=orthogonalEdgeStyle;rounded=0;orthogonalLoop=1;jettySize=auto;html=1;" edge="1" parent="1" source="4r2X5L9g-t0mAyMvK6OW-25" target="4r2X5L9g-t0mAyMvK6OW-28">
          <mxGeometry relative="1" as="geometry" />
        </mxCell>
        <mxCell id="4r2X5L9g-t0mAyMvK6OW-25" value="" style="rounded=0;whiteSpace=wrap;html=1;" vertex="1" parent="1">
          <mxGeometry x="569" y="568" width="20" height="20" as="geometry" />
        </mxCell>
        <mxCell id="4r2X5L9g-t0mAyMvK6OW-26" value="JWT" style="text;html=1;align=center;verticalAlign=middle;whiteSpace=wrap;rounded=0;" vertex="1" parent="1">
          <mxGeometry x="549" y="588" width="40" height="30" as="geometry" />
        </mxCell>
        <mxCell id="4r2X5L9g-t0mAyMvK6OW-31" style="edgeStyle=orthogonalEdgeStyle;rounded=0;orthogonalLoop=1;jettySize=auto;html=1;" edge="1" parent="1" source="4r2X5L9g-t0mAyMvK6OW-27" target="4r2X5L9g-t0mAyMvK6OW-30">
          <mxGeometry relative="1" as="geometry" />
        </mxCell>
        <mxCell id="4r2X5L9g-t0mAyMvK6OW-27" value="Send JWT" style="html=1;align=center;verticalAlign=middle;rounded=1;absoluteArcSize=1;arcSize=10;dashed=0;whiteSpace=wrap;" vertex="1" parent="1">
          <mxGeometry x="254" y="553" width="115" height="50" as="geometry" />
        </mxCell>
        <mxCell id="4r2X5L9g-t0mAyMvK6OW-28" value="" style="rounded=0;whiteSpace=wrap;html=1;" vertex="1" parent="1">
          <mxGeometry x="369" y="568" width="20" height="20" as="geometry" />
        </mxCell>
        <mxCell id="4r2X5L9g-t0mAyMvK6OW-34" style="edgeStyle=orthogonalEdgeStyle;rounded=0;orthogonalLoop=1;jettySize=auto;html=1;" edge="1" parent="1" source="4r2X5L9g-t0mAyMvK6OW-30" target="4r2X5L9g-t0mAyMvK6OW-32">
          <mxGeometry relative="1" as="geometry" />
        </mxCell>
        <mxCell id="4r2X5L9g-t0mAyMvK6OW-30" value="Save JWT" style="html=1;align=center;verticalAlign=middle;rounded=1;absoluteArcSize=1;arcSize=10;dashed=0;whiteSpace=wrap;" vertex="1" parent="1">
          <mxGeometry x="254" y="650" width="115" height="50" as="geometry" />
        </mxCell>
        <mxCell id="4r2X5L9g-t0mAyMvK6OW-32" value="" style="shape=sumEllipse;perimeter=ellipsePerimeter;html=1;backgroundOutline=1;" vertex="1" parent="1">
          <mxGeometry x="296.5" y="740" width="30" height="30" as="geometry" />
        </mxCell>
        <mxCell id="4r2X5L9g-t0mAyMvK6OW-38" value="[No]" style="rounded=0;orthogonalLoop=1;jettySize=auto;html=1;" edge="1" parent="1" source="4r2X5L9g-t0mAyMvK6OW-35" target="4r2X5L9g-t0mAyMvK6OW-14">
          <mxGeometry relative="1" as="geometry" />
        </mxCell>
        <mxCell id="4r2X5L9g-t0mAyMvK6OW-39" value="[Yes]" style="edgeStyle=orthogonalEdgeStyle;rounded=0;orthogonalLoop=1;jettySize=auto;html=1;" edge="1" parent="1" source="4r2X5L9g-t0mAyMvK6OW-35" target="4r2X5L9g-t0mAyMvK6OW-18">
          <mxGeometry relative="1" as="geometry" />
        </mxCell>
        <mxCell id="4r2X5L9g-t0mAyMvK6OW-35" value="&lt;div&gt;Do password&lt;/div&gt;&lt;div&gt;hashes match?&lt;/div&gt;" style="rhombus;whiteSpace=wrap;html=1;" vertex="1" parent="1">
          <mxGeometry x="584" y="270" width="120" height="110" as="geometry" />
        </mxCell>
      </root>
    </mxGraphModel>
  </diagram>
</mxfile>
